<svg width="14" height="10" viewBox="0 0 14 10" fill="none" xmlns="http://www.w3.org/2000/svg">
<path fill-rule="evenodd" clip-rule="evenodd" d="M12.0004 0.874701C12.5512 1.02583 12.9849 1.47114 13.1321 2.03665C13.3996 3.06156 13.3996 5.20004 13.3996 5.20004C13.3996 5.20004 13.3996 7.33844 13.1321 8.36343C12.9849 8.92893 12.5512 9.37424 12.0004 9.52545C11.0023 9.80004 6.99961 9.80004 6.99961 9.80004C6.99961 9.80004 2.99692 9.80004 1.99874 9.52545C1.44797 9.37424 1.01423 8.92893 0.867028 8.36343C0.599609 7.33844 0.599609 5.20004 0.599609 5.20004C0.599609 5.20004 0.599609 3.06156 0.867028 2.03665C1.01423 1.47114 1.44797 1.02583 1.99874 0.874701C2.99692 0.600037 6.99961 0.600037 6.99961 0.600037C6.99961 0.600037 11.0023 0.600037 12.0004 0.874701ZM5.79962 3.39999V7.39999L8.99962 5.40007L5.79962 3.39999Z" fill="white"/>
</svg>
