<svg width="14" height="14" viewBox="0 0 14 14" fill="none" xmlns="http://www.w3.org/2000/svg">
<path fill-rule="evenodd" clip-rule="evenodd" d="M7.00021 0.600006C5.26206 0.600006 5.04392 0.607606 4.36125 0.638673C3.67991 0.669873 3.21484 0.777741 2.8079 0.93601C2.38696 1.09948 2.02989 1.31815 1.67415 1.67402C1.31815 2.02975 1.09948 2.38682 0.93548 2.80763C0.776811 3.2147 0.66881 3.6799 0.638143 4.36098C0.607609 5.04365 0.599609 5.26192 0.599609 7.00007C0.599609 8.73822 0.607343 8.95569 0.638276 9.63837C0.66961 10.3197 0.777478 10.7848 0.935613 11.1917C1.09921 11.6127 1.31788 11.9697 1.67375 12.3255C2.02936 12.6815 2.38643 12.9007 2.8071 13.0641C3.2143 13.2224 3.67951 13.3303 4.36072 13.3615C5.04339 13.3925 5.26139 13.4001 6.99941 13.4001C8.73769 13.4001 8.95516 13.3925 9.63784 13.3615C10.3192 13.3303 10.7848 13.2224 11.192 13.0641C11.6128 12.9007 11.9693 12.6815 12.3249 12.3255C12.6809 11.9697 12.8996 11.6127 13.0636 11.1918C13.2209 10.7848 13.3289 10.3196 13.3609 9.6385C13.3916 8.95583 13.3996 8.73822 13.3996 7.00007C13.3996 5.26192 13.3916 5.04379 13.3609 4.36111C13.3289 3.67977 13.2209 3.2147 13.0636 2.80776C12.8996 2.38682 12.6809 2.02975 12.3249 1.67402C11.9689 1.31801 11.6129 1.09934 11.1916 0.93601C10.7836 0.777741 10.3182 0.669873 9.6369 0.638673C8.95423 0.607606 8.73689 0.600006 6.99821 0.600006H7.00021ZM6.42604 1.75333C6.59644 1.75307 6.78658 1.75333 7.00018 1.75333C8.709 1.75333 8.91154 1.75947 9.58634 1.79013C10.2103 1.81867 10.549 1.92294 10.7746 2.01054C11.0733 2.12654 11.2862 2.26521 11.5101 2.48921C11.7341 2.71321 11.8728 2.92655 11.989 3.22522C12.0766 3.45055 12.181 3.78922 12.2094 4.41323C12.2401 5.0879 12.2468 5.29057 12.2468 6.99859C12.2468 8.70661 12.2401 8.90928 12.2094 9.58395C12.1809 10.208 12.0766 10.5466 11.989 10.772C11.873 11.0706 11.7341 11.2833 11.5101 11.5072C11.2861 11.7312 11.0734 11.8698 10.7746 11.9858C10.5493 12.0738 10.2103 12.1778 9.58634 12.2064C8.91167 12.237 8.709 12.2437 7.00018 12.2437C5.29123 12.2437 5.0887 12.237 4.41402 12.2064C3.79002 12.1776 3.45134 12.0733 3.22561 11.9857C2.92694 11.8697 2.7136 11.731 2.4896 11.507C2.2656 11.283 2.12693 11.0702 2.01066 10.7714C1.92306 10.5461 1.81866 10.2074 1.79026 9.58342C1.75959 8.90874 1.75346 8.70607 1.75346 6.99699C1.75346 5.2879 1.75959 5.0863 1.79026 4.41163C1.81879 3.78762 1.92306 3.44895 2.01066 3.22335C2.12666 2.92468 2.2656 2.71134 2.4896 2.48734C2.7136 2.26334 2.92694 2.12467 3.22561 2.0084C3.45121 1.9204 3.79002 1.8164 4.41402 1.78773C5.00443 1.76107 5.23323 1.75307 6.42604 1.75173V1.75333ZM10.4165 2.81601C9.99248 2.81601 9.64848 3.15962 9.64848 3.58376C9.64848 4.00776 9.99248 4.35176 10.4165 4.35176C10.8405 4.35176 11.1845 4.00776 11.1845 3.58376C11.1845 3.15975 10.8405 2.81601 10.4165 2.81601ZM7.00022 3.71335C5.18513 3.71335 3.71352 5.18497 3.71352 7.00006C3.71352 8.81514 5.18513 10.2861 7.00022 10.2861C8.81531 10.2861 10.2864 8.81514 10.2864 7.00006C10.2864 5.18497 8.81531 3.71335 7.00022 3.71335ZM7.0002 4.8667C8.17834 4.8667 9.13355 5.82178 9.13355 7.00006C9.13355 8.1782 8.17834 9.13341 7.0002 9.13341C5.82192 9.13341 4.86684 8.1782 4.86684 7.00006C4.86684 5.82178 5.82192 4.8667 7.0002 4.8667Z" fill="white"/>
</svg>
